<svg class="rich-terminal" viewBox="0 0 1641 489.2" xmlns="http://www.w3.org/2000/svg">
    <!-- Generated with Rich https://www.textualize.io -->
    <style>

    @font-face {
        font-family: "Fira Code";
        src: local("FiraCode-Regular"),
                url("https://cdnjs.cloudflare.com/ajax/libs/firacode/6.2.0/woff2/FiraCode-Regular.woff2") format("woff2"),
                url("https://cdnjs.cloudflare.com/ajax/libs/firacode/6.2.0/woff/FiraCode-Regular.woff") format("woff");
        font-style: normal;
        font-weight: 400;
    }
    @font-face {
        font-family: "Fira Code";
        src: local("FiraCode-Bold"),
                url("https://cdnjs.cloudflare.com/ajax/libs/firacode/6.2.0/woff2/FiraCode-Bold.woff2") format("woff2"),
                url("https://cdnjs.cloudflare.com/ajax/libs/firacode/6.2.0/woff/FiraCode-Bold.woff") format("woff");
        font-style: bold;
        font-weight: 700;
    }

    .terminal-3724964565-matrix {
        font-family: Fira Code, monospace;
        font-size: 20px;
        line-height: 24.4px;
        font-variant-east-asian: full-width;
    }

    .terminal-3724964565-title {
        font-size: 18px;
        font-weight: bold;
        font-family: arial;
    }

    .terminal-3724964565-r1 { fill: #e1e1e1 }
.terminal-3724964565-r2 { fill: #c5c8c6 }
.terminal-3724964565-r3 { fill: #fea62b }
.terminal-3724964565-r4 { fill: #323232 }
.terminal-3724964565-r5 { fill: #24292f }
.terminal-3724964565-r6 { fill: #e2e3e3 }
.terminal-3724964565-r7 { fill: #fd971f;font-weight: bold }
.terminal-3724964565-r8 { fill: #fea62b;font-weight: bold }
.terminal-3724964565-r9 { fill: #a7a9ab }
    </style>

    <defs>
    <clipPath id="terminal-3724964565-clip-terminal">
      <rect x="0" y="0" width="1621.6" height="438.2" />
    </clipPath>
    <clipPath id="terminal-3724964565-line-0">
    <rect x="0" y="1.5" width="1622.6" height="24.65"/>
            </clipPath>
<clipPath id="terminal-3724964565-line-1">
    <rect x="0" y="25.9" width="1622.6" height="24.65"/>
            </clipPath>
<clipPath id="terminal-3724964565-line-2">
    <rect x="0" y="50.3" width="1622.6" height="24.65"/>
            </clipPath>
<clipPath id="terminal-3724964565-line-3">
    <rect x="0" y="74.7" width="1622.6" height="24.65"/>
            </clipPath>
<clipPath id="terminal-3724964565-line-4">
    <rect x="0" y="99.1" width="1622.6" height="24.65"/>
            </clipPath>
<clipPath id="terminal-3724964565-line-5">
    <rect x="0" y="123.5" width="1622.6" height="24.65"/>
            </clipPath>
<clipPath id="terminal-3724964565-line-6">
    <rect x="0" y="147.9" width="1622.6" height="24.65"/>
            </clipPath>
<clipPath id="terminal-3724964565-line-7">
    <rect x="0" y="172.3" width="1622.6" height="24.65"/>
            </clipPath>
<clipPath id="terminal-3724964565-line-8">
    <rect x="0" y="196.7" width="1622.6" height="24.65"/>
            </clipPath>
<clipPath id="terminal-3724964565-line-9">
    <rect x="0" y="221.1" width="1622.6" height="24.65"/>
            </clipPath>
<clipPath id="terminal-3724964565-line-10">
    <rect x="0" y="245.5" width="1622.6" height="24.65"/>
            </clipPath>
<clipPath id="terminal-3724964565-line-11">
    <rect x="0" y="269.9" width="1622.6" height="24.65"/>
            </clipPath>
<clipPath id="terminal-3724964565-line-12">
    <rect x="0" y="294.3" width="1622.6" height="24.65"/>
            </clipPath>
<clipPath id="terminal-3724964565-line-13">
    <rect x="0" y="318.7" width="1622.6" height="24.65"/>
            </clipPath>
<clipPath id="terminal-3724964565-line-14">
    <rect x="0" y="343.1" width="1622.6" height="24.65"/>
            </clipPath>
<clipPath id="terminal-3724964565-line-15">
    <rect x="0" y="367.5" width="1622.6" height="24.65"/>
            </clipPath>
<clipPath id="terminal-3724964565-line-16">
    <rect x="0" y="391.9" width="1622.6" height="24.65"/>
            </clipPath>
    </defs>

    <rect fill="#292929" stroke="rgba(255,255,255,0.35)" stroke-width="1" x="1" y="1" width="1639" height="487.2" rx="8"/><text class="terminal-3724964565-title" fill="#c5c8c6" text-anchor="middle" x="819" y="27">Datatui&#160;-&#160;enriching&#160;data&#160;from&#160;the&#160;terminal</text>
            <g transform="translate(26,22)">
            <circle cx="0" cy="0" r="7" fill="#ff5f57"/>
            <circle cx="22" cy="0" r="7" fill="#febc2e"/>
            <circle cx="44" cy="0" r="7" fill="#28c840"/>
            </g>
        
    <g transform="translate(9, 41)" clip-path="url(#terminal-3724964565-clip-terminal)">
    <rect fill="#1e1e1e" x="0" y="1.5" width="1525" height="24.65" shape-rendering="crispEdges"/><rect fill="#1e1e1e" x="1525" y="1.5" width="97.6" height="24.65" shape-rendering="crispEdges"/><rect fill="#1e1e1e" x="0" y="25.9" width="536.8" height="24.65" shape-rendering="crispEdges"/><rect fill="#1e1e1e" x="536.8" y="25.9" width="73.2" height="24.65" shape-rendering="crispEdges"/><rect fill="#1e1e1e" x="610" y="25.9" width="12.2" height="24.65" shape-rendering="crispEdges"/><rect fill="#1e1e1e" x="622.2" y="25.9" width="305" height="24.65" shape-rendering="crispEdges"/><rect fill="#1e1e1e" x="927.2" y="25.9" width="24.4" height="24.65" shape-rendering="crispEdges"/><rect fill="#1e1e1e" x="951.6" y="25.9" width="36.6" height="24.65" shape-rendering="crispEdges"/><rect fill="#1e1e1e" x="988.2" y="25.9" width="536.8" height="24.65" shape-rendering="crispEdges"/><rect fill="#1e1e1e" x="1525" y="25.9" width="97.6" height="24.65" shape-rendering="crispEdges"/><rect fill="#1e1e1e" x="0" y="50.3" width="1622.6" height="24.65" shape-rendering="crispEdges"/><rect fill="#1e1e1e" x="0" y="74.7" width="48.8" height="24.65" shape-rendering="crispEdges"/><rect fill="#24292f" x="48.8" y="74.7" width="12.2" height="24.65" shape-rendering="crispEdges"/><rect fill="#24292f" x="61" y="74.7" width="1500.6" height="24.65" shape-rendering="crispEdges"/><rect fill="#24292f" x="1561.6" y="74.7" width="12.2" height="24.65" shape-rendering="crispEdges"/><rect fill="#1e1e1e" x="1573.8" y="74.7" width="48.8" height="24.65" shape-rendering="crispEdges"/><rect fill="#1e1e1e" x="0" y="99.1" width="48.8" height="24.65" shape-rendering="crispEdges"/><rect fill="#24292f" x="48.8" y="99.1" width="12.2" height="24.65" shape-rendering="crispEdges"/><rect fill="#24292f" x="61" y="99.1" width="1500.6" height="24.65" shape-rendering="crispEdges"/><rect fill="#24292f" x="1561.6" y="99.1" width="12.2" height="24.65" shape-rendering="crispEdges"/><rect fill="#1e1e1e" x="1573.8" y="99.1" width="48.8" height="24.65" shape-rendering="crispEdges"/><rect fill="#1e1e1e" x="0" y="123.5" width="48.8" height="24.65" shape-rendering="crispEdges"/><rect fill="#24292f" x="48.8" y="123.5" width="12.2" height="24.65" shape-rendering="crispEdges"/><rect fill="#24292f" x="61" y="123.5" width="1500.6" height="24.65" shape-rendering="crispEdges"/><rect fill="#24292f" x="1561.6" y="123.5" width="12.2" height="24.65" shape-rendering="crispEdges"/><rect fill="#1e1e1e" x="1573.8" y="123.5" width="48.8" height="24.65" shape-rendering="crispEdges"/><rect fill="#1e1e1e" x="0" y="147.9" width="48.8" height="24.65" shape-rendering="crispEdges"/><rect fill="#24292f" x="48.8" y="147.9" width="12.2" height="24.65" shape-rendering="crispEdges"/><rect fill="#24292f" x="61" y="147.9" width="73.2" height="24.65" shape-rendering="crispEdges"/><rect fill="#24292f" x="134.2" y="147.9" width="292.8" height="24.65" shape-rendering="crispEdges"/><rect fill="#24292f" x="427" y="147.9" width="610" height="24.65" shape-rendering="crispEdges"/><rect fill="#24292f" x="1037" y="147.9" width="134.2" height="24.65" shape-rendering="crispEdges"/><rect fill="#24292f" x="1171.2" y="147.9" width="24.4" height="24.65" shape-rendering="crispEdges"/><rect fill="#24292f" x="1195.6" y="147.9" width="292.8" height="24.65" shape-rendering="crispEdges"/><rect fill="#24292f" x="1488.4" y="147.9" width="73.2" height="24.65" shape-rendering="crispEdges"/><rect fill="#24292f" x="1561.6" y="147.9" width="12.2" height="24.65" shape-rendering="crispEdges"/><rect fill="#1e1e1e" x="1573.8" y="147.9" width="48.8" height="24.65" shape-rendering="crispEdges"/><rect fill="#1e1e1e" x="0" y="172.3" width="48.8" height="24.65" shape-rendering="crispEdges"/><rect fill="#24292f" x="48.8" y="172.3" width="12.2" height="24.65" shape-rendering="crispEdges"/><rect fill="#24292f" x="61" y="172.3" width="73.2" height="24.65" shape-rendering="crispEdges"/><rect fill="#24292f" x="134.2" y="172.3" width="1354.2" height="24.65" shape-rendering="crispEdges"/><rect fill="#24292f" x="1488.4" y="172.3" width="73.2" height="24.65" shape-rendering="crispEdges"/><rect fill="#24292f" x="1561.6" y="172.3" width="12.2" height="24.65" shape-rendering="crispEdges"/><rect fill="#1e1e1e" x="1573.8" y="172.3" width="48.8" height="24.65" shape-rendering="crispEdges"/><rect fill="#1e1e1e" x="0" y="196.7" width="48.8" height="24.65" shape-rendering="crispEdges"/><rect fill="#24292f" x="48.8" y="196.7" width="12.2" height="24.65" shape-rendering="crispEdges"/><rect fill="#24292f" x="61" y="196.7" width="73.2" height="24.65" shape-rendering="crispEdges"/><rect fill="#24292f" x="134.2" y="196.7" width="1354.2" height="24.65" shape-rendering="crispEdges"/><rect fill="#24292f" x="1488.4" y="196.7" width="73.2" height="24.65" shape-rendering="crispEdges"/><rect fill="#24292f" x="1561.6" y="196.7" width="12.2" height="24.65" shape-rendering="crispEdges"/><rect fill="#1e1e1e" x="1573.8" y="196.7" width="48.8" height="24.65" shape-rendering="crispEdges"/><rect fill="#1e1e1e" x="0" y="221.1" width="48.8" height="24.65" shape-rendering="crispEdges"/><rect fill="#24292f" x="48.8" y="221.1" width="12.2" height="24.65" shape-rendering="crispEdges"/><rect fill="#24292f" x="61" y="221.1" width="1500.6" height="24.65" shape-rendering="crispEdges"/><rect fill="#24292f" x="1561.6" y="221.1" width="12.2" height="24.65" shape-rendering="crispEdges"/><rect fill="#1e1e1e" x="1573.8" y="221.1" width="48.8" height="24.65" shape-rendering="crispEdges"/><rect fill="#1e1e1e" x="0" y="245.5" width="48.8" height="24.65" shape-rendering="crispEdges"/><rect fill="#24292f" x="48.8" y="245.5" width="12.2" height="24.65" shape-rendering="crispEdges"/><rect fill="#24292f" x="61" y="245.5" width="1500.6" height="24.65" shape-rendering="crispEdges"/><rect fill="#24292f" x="1561.6" y="245.5" width="12.2" height="24.65" shape-rendering="crispEdges"/><rect fill="#1e1e1e" x="1573.8" y="245.5" width="48.8" height="24.65" shape-rendering="crispEdges"/><rect fill="#1e1e1e" x="0" y="269.9" width="48.8" height="24.65" shape-rendering="crispEdges"/><rect fill="#24292f" x="48.8" y="269.9" width="12.2" height="24.65" shape-rendering="crispEdges"/><rect fill="#24292f" x="61" y="269.9" width="1500.6" height="24.65" shape-rendering="crispEdges"/><rect fill="#24292f" x="1561.6" y="269.9" width="12.2" height="24.65" shape-rendering="crispEdges"/><rect fill="#1e1e1e" x="1573.8" y="269.9" width="48.8" height="24.65" shape-rendering="crispEdges"/><rect fill="#1e1e1e" x="0" y="294.3" width="1622.6" height="24.65" shape-rendering="crispEdges"/><rect fill="#1e1e1e" x="0" y="318.7" width="1622.6" height="24.65" shape-rendering="crispEdges"/><rect fill="#1e1e1e" x="0" y="343.1" width="1622.6" height="24.65" shape-rendering="crispEdges"/><rect fill="#1e1e1e" x="0" y="367.5" width="1622.6" height="24.65" shape-rendering="crispEdges"/><rect fill="#1e1e1e" x="0" y="391.9" width="1622.6" height="24.65" shape-rendering="crispEdges"/><rect fill="#24292f" x="0" y="416.3" width="36.6" height="24.65" shape-rendering="crispEdges"/><rect fill="#24292f" x="36.6" y="416.3" width="158.6" height="24.65" shape-rendering="crispEdges"/><rect fill="#24292f" x="195.2" y="416.3" width="12.2" height="24.65" shape-rendering="crispEdges"/><rect fill="#24292f" x="207.4" y="416.3" width="36.6" height="24.65" shape-rendering="crispEdges"/><rect fill="#24292f" x="244" y="416.3" width="146.4" height="24.65" shape-rendering="crispEdges"/><rect fill="#24292f" x="390.4" y="416.3" width="12.2" height="24.65" shape-rendering="crispEdges"/><rect fill="#24292f" x="402.6" y="416.3" width="36.6" height="24.65" shape-rendering="crispEdges"/><rect fill="#24292f" x="439.2" y="416.3" width="183" height="24.65" shape-rendering="crispEdges"/><rect fill="#24292f" x="622.2" y="416.3" width="12.2" height="24.65" shape-rendering="crispEdges"/><rect fill="#24292f" x="634.4" y="416.3" width="85.4" height="24.65" shape-rendering="crispEdges"/><rect fill="#24292f" x="719.8" y="416.3" width="183" height="24.65" shape-rendering="crispEdges"/><rect fill="#24292f" x="902.8" y="416.3" width="12.2" height="24.65" shape-rendering="crispEdges"/><rect fill="#24292f" x="915" y="416.3" width="36.6" height="24.65" shape-rendering="crispEdges"/><rect fill="#24292f" x="951.6" y="416.3" width="207.4" height="24.65" shape-rendering="crispEdges"/><rect fill="#24292f" x="1159" y="416.3" width="12.2" height="24.65" shape-rendering="crispEdges"/><rect fill="#24292f" x="1171.2" y="416.3" width="451.4" height="24.65" shape-rendering="crispEdges"/>
    <g class="terminal-3724964565-matrix">
    <text class="terminal-3724964565-r2" x="1622.6" y="20" textLength="12.2" clip-path="url(#terminal-3724964565-line-0)">
</text><text class="terminal-3724964565-r3" x="536.8" y="44.4" textLength="73.2" clip-path="url(#terminal-3724964565-line-1)">━━━━━━</text><text class="terminal-3724964565-r4" x="610" y="44.4" textLength="12.2" clip-path="url(#terminal-3724964565-line-1)">╺</text><text class="terminal-3724964565-r4" x="622.2" y="44.4" textLength="305" clip-path="url(#terminal-3724964565-line-1)">━━━━━━━━━━━━━━━━━━━━━━━━━</text><text class="terminal-3724964565-r1" x="951.6" y="44.4" textLength="36.6" clip-path="url(#terminal-3724964565-line-1)">19%</text><text class="terminal-3724964565-r2" x="1622.6" y="44.4" textLength="12.2" clip-path="url(#terminal-3724964565-line-1)">
</text><text class="terminal-3724964565-r2" x="1622.6" y="68.8" textLength="12.2" clip-path="url(#terminal-3724964565-line-2)">
</text><text class="terminal-3724964565-r5" x="48.8" y="93.2" textLength="12.2" clip-path="url(#terminal-3724964565-line-3)">▔</text><text class="terminal-3724964565-r5" x="61" y="93.2" textLength="1500.6" clip-path="url(#terminal-3724964565-line-3)">▔▔▔▔▔▔▔▔▔▔▔▔▔▔▔▔▔▔▔▔▔▔▔▔▔▔▔▔▔▔▔▔▔▔▔▔▔▔▔▔▔▔▔▔▔▔▔▔▔▔▔▔▔▔▔▔▔▔▔▔▔▔▔▔▔▔▔▔▔▔▔▔▔▔▔▔▔▔▔▔▔▔▔▔▔▔▔▔▔▔▔▔▔▔▔▔▔▔▔▔▔▔▔▔▔▔▔▔▔▔▔▔▔▔▔▔▔▔▔▔▔▔▔</text><text class="terminal-3724964565-r5" x="1561.6" y="93.2" textLength="12.2" clip-path="url(#terminal-3724964565-line-3)">▔</text><text class="terminal-3724964565-r2" x="1622.6" y="93.2" textLength="12.2" clip-path="url(#terminal-3724964565-line-3)">
</text><text class="terminal-3724964565-r2" x="1622.6" y="117.6" textLength="12.2" clip-path="url(#terminal-3724964565-line-4)">
</text><text class="terminal-3724964565-r2" x="1622.6" y="142" textLength="12.2" clip-path="url(#terminal-3724964565-line-5)">
</text><text class="terminal-3724964565-r7" x="427" y="166.4" textLength="610" clip-path="url(#terminal-3724964565-line-6)">Does&#160;this&#160;sentence&#160;suggest&#160;the&#160;article&#160;is&#160;about&#160;a&#160;</text><text class="terminal-3724964565-r7" x="1037" y="166.4" textLength="134.2" clip-path="url(#terminal-3724964565-line-6)">new&#160;dataset</text><text class="terminal-3724964565-r7" x="1171.2" y="166.4" textLength="24.4" clip-path="url(#terminal-3724964565-line-6)">?.</text><text class="terminal-3724964565-r2" x="1622.6" y="166.4" textLength="12.2" clip-path="url(#terminal-3724964565-line-6)">
</text><text class="terminal-3724964565-r2" x="1622.6" y="190.8" textLength="12.2" clip-path="url(#terminal-3724964565-line-7)">
</text><text class="terminal-3724964565-r6" x="134.2" y="215.2" textLength="1354.2" clip-path="url(#terminal-3724964565-line-8)">&#160;&#160;&#160;&#160;&#160;&#160;&#160;&#160;&#160;&#160;&#160;&#160;&#160;&#160;&#160;&#160;&#160;Our&#160;SCB-dataset&#160;can&#160;be&#160;downloaded&#160;from:&#160;https://github.com/Whiffe/SCB-dataset&#160;&#160;&#160;&#160;&#160;&#160;&#160;&#160;&#160;&#160;&#160;&#160;&#160;&#160;&#160;&#160;&#160;</text><text class="terminal-3724964565-r2" x="1622.6" y="215.2" textLength="12.2" clip-path="url(#terminal-3724964565-line-8)">
</text><text class="terminal-3724964565-r2" x="1622.6" y="239.6" textLength="12.2" clip-path="url(#terminal-3724964565-line-9)">
</text><text class="terminal-3724964565-r2" x="1622.6" y="264" textLength="12.2" clip-path="url(#terminal-3724964565-line-10)">
</text><text class="terminal-3724964565-r5" x="48.8" y="288.4" textLength="12.2" clip-path="url(#terminal-3724964565-line-11)">▁</text><text class="terminal-3724964565-r5" x="61" y="288.4" textLength="1500.6" clip-path="url(#terminal-3724964565-line-11)">▁▁▁▁▁▁▁▁▁▁▁▁▁▁▁▁▁▁▁▁▁▁▁▁▁▁▁▁▁▁▁▁▁▁▁▁▁▁▁▁▁▁▁▁▁▁▁▁▁▁▁▁▁▁▁▁▁▁▁▁▁▁▁▁▁▁▁▁▁▁▁▁▁▁▁▁▁▁▁▁▁▁▁▁▁▁▁▁▁▁▁▁▁▁▁▁▁▁▁▁▁▁▁▁▁▁▁▁▁▁▁▁▁▁▁▁▁▁▁▁▁▁▁</text><text class="terminal-3724964565-r5" x="1561.6" y="288.4" textLength="12.2" clip-path="url(#terminal-3724964565-line-11)">▁</text><text class="terminal-3724964565-r2" x="1622.6" y="288.4" textLength="12.2" clip-path="url(#terminal-3724964565-line-11)">
</text><text class="terminal-3724964565-r2" x="1622.6" y="312.8" textLength="12.2" clip-path="url(#terminal-3724964565-line-12)">
</text><text class="terminal-3724964565-r2" x="1622.6" y="337.2" textLength="12.2" clip-path="url(#terminal-3724964565-line-13)">
</text><text class="terminal-3724964565-r2" x="1622.6" y="361.6" textLength="12.2" clip-path="url(#terminal-3724964565-line-14)">
</text><text class="terminal-3724964565-r2" x="1622.6" y="386" textLength="12.2" clip-path="url(#terminal-3724964565-line-15)">
</text><text class="terminal-3724964565-r2" x="1622.6" y="410.4" textLength="12.2" clip-path="url(#terminal-3724964565-line-16)">
</text><text class="terminal-3724964565-r8" x="0" y="434.8" textLength="36.6" clip-path="url(#terminal-3724964565-line-17)">&#160;f&#160;</text><text class="terminal-3724964565-r9" x="36.6" y="434.8" textLength="158.6" clip-path="url(#terminal-3724964565-line-17)">Annotate&#160;yes.</text><text class="terminal-3724964565-r8" x="207.4" y="434.8" textLength="36.6" clip-path="url(#terminal-3724964565-line-17)">&#160;j&#160;</text><text class="terminal-3724964565-r9" x="244" y="434.8" textLength="146.4" clip-path="url(#terminal-3724964565-line-17)">Annotate&#160;no.</text><text class="terminal-3724964565-r8" x="402.6" y="434.8" textLength="36.6" clip-path="url(#terminal-3724964565-line-17)">&#160;m&#160;</text><text class="terminal-3724964565-r9" x="439.2" y="434.8" textLength="183" clip-path="url(#terminal-3724964565-line-17)">Annotate&#160;maybe.</text><text class="terminal-3724964565-r8" x="634.4" y="434.8" textLength="85.4" clip-path="url(#terminal-3724964565-line-17)">&#160;SPACE&#160;</text><text class="terminal-3724964565-r9" x="719.8" y="434.8" textLength="183" clip-path="url(#terminal-3724964565-line-17)">Skip&#160;the&#160;thing.</text><text class="terminal-3724964565-r8" x="915" y="434.8" textLength="36.6" clip-path="url(#terminal-3724964565-line-17)">&#160;⌫&#160;</text><text class="terminal-3724964565-r9" x="951.6" y="434.8" textLength="207.4" clip-path="url(#terminal-3724964565-line-17)">Previous&#160;example.</text>
    </g>
    </g>
</svg>
