<svg class="rich-terminal" viewBox="0 0 1934 538.0" xmlns="http://www.w3.org/2000/svg">
    <!-- Generated with Rich https://www.textualize.io -->
    <style>

    @font-face {
        font-family: "Fira Code";
        src: local("FiraCode-Regular"),
                url("https://cdnjs.cloudflare.com/ajax/libs/firacode/6.2.0/woff2/FiraCode-Regular.woff2") format("woff2"),
                url("https://cdnjs.cloudflare.com/ajax/libs/firacode/6.2.0/woff/FiraCode-Regular.woff") format("woff");
        font-style: normal;
        font-weight: 400;
    }
    @font-face {
        font-family: "Fira Code";
        src: local("FiraCode-Bold"),
                url("https://cdnjs.cloudflare.com/ajax/libs/firacode/6.2.0/woff2/FiraCode-Bold.woff2") format("woff2"),
                url("https://cdnjs.cloudflare.com/ajax/libs/firacode/6.2.0/woff/FiraCode-Bold.woff") format("woff");
        font-style: bold;
        font-weight: 700;
    }

    .terminal-987389223-matrix {
        font-family: Fira Code, monospace;
        font-size: 20px;
        line-height: 24.4px;
        font-variant-east-asian: full-width;
    }

    .terminal-987389223-title {
        font-size: 18px;
        font-weight: bold;
        font-family: arial;
    }

    .terminal-987389223-r1 { fill: #e1e1e1 }
.terminal-987389223-r2 { fill: #c5c8c6 }
.terminal-987389223-r3 { fill: #fea62b }
.terminal-987389223-r4 { fill: #323232 }
.terminal-987389223-r5 { fill: #24292f }
.terminal-987389223-r6 { fill: #fd971f;font-weight: bold }
.terminal-987389223-r7 { fill: #e2e3e3 }
.terminal-987389223-r8 { fill: #fea62b;font-weight: bold }
.terminal-987389223-r9 { fill: #a7a9ab }
    </style>

    <defs>
    <clipPath id="terminal-987389223-clip-terminal">
      <rect x="0" y="0" width="1914.3999999999999" height="487.0" />
    </clipPath>
    <clipPath id="terminal-987389223-line-0">
    <rect x="0" y="1.5" width="1915.4" height="24.65"/>
            </clipPath>
<clipPath id="terminal-987389223-line-1">
    <rect x="0" y="25.9" width="1915.4" height="24.65"/>
            </clipPath>
<clipPath id="terminal-987389223-line-2">
    <rect x="0" y="50.3" width="1915.4" height="24.65"/>
            </clipPath>
<clipPath id="terminal-987389223-line-3">
    <rect x="0" y="74.7" width="1915.4" height="24.65"/>
            </clipPath>
<clipPath id="terminal-987389223-line-4">
    <rect x="0" y="99.1" width="1915.4" height="24.65"/>
            </clipPath>
<clipPath id="terminal-987389223-line-5">
    <rect x="0" y="123.5" width="1915.4" height="24.65"/>
            </clipPath>
<clipPath id="terminal-987389223-line-6">
    <rect x="0" y="147.9" width="1915.4" height="24.65"/>
            </clipPath>
<clipPath id="terminal-987389223-line-7">
    <rect x="0" y="172.3" width="1915.4" height="24.65"/>
            </clipPath>
<clipPath id="terminal-987389223-line-8">
    <rect x="0" y="196.7" width="1915.4" height="24.65"/>
            </clipPath>
<clipPath id="terminal-987389223-line-9">
    <rect x="0" y="221.1" width="1915.4" height="24.65"/>
            </clipPath>
<clipPath id="terminal-987389223-line-10">
    <rect x="0" y="245.5" width="1915.4" height="24.65"/>
            </clipPath>
<clipPath id="terminal-987389223-line-11">
    <rect x="0" y="269.9" width="1915.4" height="24.65"/>
            </clipPath>
<clipPath id="terminal-987389223-line-12">
    <rect x="0" y="294.3" width="1915.4" height="24.65"/>
            </clipPath>
<clipPath id="terminal-987389223-line-13">
    <rect x="0" y="318.7" width="1915.4" height="24.65"/>
            </clipPath>
<clipPath id="terminal-987389223-line-14">
    <rect x="0" y="343.1" width="1915.4" height="24.65"/>
            </clipPath>
<clipPath id="terminal-987389223-line-15">
    <rect x="0" y="367.5" width="1915.4" height="24.65"/>
            </clipPath>
<clipPath id="terminal-987389223-line-16">
    <rect x="0" y="391.9" width="1915.4" height="24.65"/>
            </clipPath>
<clipPath id="terminal-987389223-line-17">
    <rect x="0" y="416.3" width="1915.4" height="24.65"/>
            </clipPath>
<clipPath id="terminal-987389223-line-18">
    <rect x="0" y="440.7" width="1915.4" height="24.65"/>
            </clipPath>
    </defs>

    <rect fill="#292929" stroke="rgba(255,255,255,0.35)" stroke-width="1" x="1" y="1" width="1932" height="536" rx="8"/><text class="terminal-987389223-title" fill="#c5c8c6" text-anchor="middle" x="966" y="27">Datatui&#160;-&#160;enriching&#160;data&#160;from&#160;the&#160;terminal</text>
            <g transform="translate(26,22)">
            <circle cx="0" cy="0" r="7" fill="#ff5f57"/>
            <circle cx="22" cy="0" r="7" fill="#febc2e"/>
            <circle cx="44" cy="0" r="7" fill="#28c840"/>
            </g>
        
    <g transform="translate(9, 41)" clip-path="url(#terminal-987389223-clip-terminal)">
    <rect fill="#1e1e1e" x="0" y="1.5" width="1817.8" height="24.65" shape-rendering="crispEdges"/><rect fill="#1e1e1e" x="1817.8" y="1.5" width="97.6" height="24.65" shape-rendering="crispEdges"/><rect fill="#1e1e1e" x="0" y="25.9" width="683.2" height="24.65" shape-rendering="crispEdges"/><rect fill="#1e1e1e" x="683.2" y="25.9" width="12.2" height="24.65" shape-rendering="crispEdges"/><rect fill="#1e1e1e" x="695.4" y="25.9" width="12.2" height="24.65" shape-rendering="crispEdges"/><rect fill="#1e1e1e" x="707.6" y="25.9" width="366" height="24.65" shape-rendering="crispEdges"/><rect fill="#1e1e1e" x="1073.6" y="25.9" width="36.6" height="24.65" shape-rendering="crispEdges"/><rect fill="#1e1e1e" x="1110.2" y="25.9" width="24.4" height="24.65" shape-rendering="crispEdges"/><rect fill="#1e1e1e" x="1134.6" y="25.9" width="683.2" height="24.65" shape-rendering="crispEdges"/><rect fill="#1e1e1e" x="1817.8" y="25.9" width="97.6" height="24.65" shape-rendering="crispEdges"/><rect fill="#1e1e1e" x="0" y="50.3" width="1915.4" height="24.65" shape-rendering="crispEdges"/><rect fill="#1e1e1e" x="0" y="74.7" width="48.8" height="24.65" shape-rendering="crispEdges"/><rect fill="#24292f" x="48.8" y="74.7" width="12.2" height="24.65" shape-rendering="crispEdges"/><rect fill="#24292f" x="61" y="74.7" width="1793.4" height="24.65" shape-rendering="crispEdges"/><rect fill="#24292f" x="1854.4" y="74.7" width="12.2" height="24.65" shape-rendering="crispEdges"/><rect fill="#1e1e1e" x="1866.6" y="74.7" width="48.8" height="24.65" shape-rendering="crispEdges"/><rect fill="#1e1e1e" x="0" y="99.1" width="48.8" height="24.65" shape-rendering="crispEdges"/><rect fill="#24292f" x="48.8" y="99.1" width="12.2" height="24.65" shape-rendering="crispEdges"/><rect fill="#24292f" x="61" y="99.1" width="1793.4" height="24.65" shape-rendering="crispEdges"/><rect fill="#24292f" x="1854.4" y="99.1" width="12.2" height="24.65" shape-rendering="crispEdges"/><rect fill="#1e1e1e" x="1866.6" y="99.1" width="48.8" height="24.65" shape-rendering="crispEdges"/><rect fill="#1e1e1e" x="0" y="123.5" width="48.8" height="24.65" shape-rendering="crispEdges"/><rect fill="#24292f" x="48.8" y="123.5" width="12.2" height="24.65" shape-rendering="crispEdges"/><rect fill="#24292f" x="61" y="123.5" width="1793.4" height="24.65" shape-rendering="crispEdges"/><rect fill="#24292f" x="1854.4" y="123.5" width="12.2" height="24.65" shape-rendering="crispEdges"/><rect fill="#1e1e1e" x="1866.6" y="123.5" width="48.8" height="24.65" shape-rendering="crispEdges"/><rect fill="#1e1e1e" x="0" y="147.9" width="48.8" height="24.65" shape-rendering="crispEdges"/><rect fill="#24292f" x="48.8" y="147.9" width="12.2" height="24.65" shape-rendering="crispEdges"/><rect fill="#24292f" x="61" y="147.9" width="73.2" height="24.65" shape-rendering="crispEdges"/><rect fill="#24292f" x="134.2" y="147.9" width="610" height="24.65" shape-rendering="crispEdges"/><rect fill="#24292f" x="744.2" y="147.9" width="134.2" height="24.65" shape-rendering="crispEdges"/><rect fill="#24292f" x="878.4" y="147.9" width="24.4" height="24.65" shape-rendering="crispEdges"/><rect fill="#24292f" x="902.8" y="147.9" width="878.4" height="24.65" shape-rendering="crispEdges"/><rect fill="#24292f" x="1781.2" y="147.9" width="73.2" height="24.65" shape-rendering="crispEdges"/><rect fill="#24292f" x="1854.4" y="147.9" width="12.2" height="24.65" shape-rendering="crispEdges"/><rect fill="#1e1e1e" x="1866.6" y="147.9" width="48.8" height="24.65" shape-rendering="crispEdges"/><rect fill="#1e1e1e" x="0" y="172.3" width="48.8" height="24.65" shape-rendering="crispEdges"/><rect fill="#24292f" x="48.8" y="172.3" width="12.2" height="24.65" shape-rendering="crispEdges"/><rect fill="#24292f" x="61" y="172.3" width="73.2" height="24.65" shape-rendering="crispEdges"/><rect fill="#24292f" x="134.2" y="172.3" width="1647" height="24.65" shape-rendering="crispEdges"/><rect fill="#24292f" x="1781.2" y="172.3" width="73.2" height="24.65" shape-rendering="crispEdges"/><rect fill="#24292f" x="1854.4" y="172.3" width="12.2" height="24.65" shape-rendering="crispEdges"/><rect fill="#1e1e1e" x="1866.6" y="172.3" width="48.8" height="24.65" shape-rendering="crispEdges"/><rect fill="#1e1e1e" x="0" y="196.7" width="48.8" height="24.65" shape-rendering="crispEdges"/><rect fill="#24292f" x="48.8" y="196.7" width="12.2" height="24.65" shape-rendering="crispEdges"/><rect fill="#24292f" x="61" y="196.7" width="73.2" height="24.65" shape-rendering="crispEdges"/><rect fill="#24292f" x="134.2" y="196.7" width="1647" height="24.65" shape-rendering="crispEdges"/><rect fill="#24292f" x="1781.2" y="196.7" width="73.2" height="24.65" shape-rendering="crispEdges"/><rect fill="#24292f" x="1854.4" y="196.7" width="12.2" height="24.65" shape-rendering="crispEdges"/><rect fill="#1e1e1e" x="1866.6" y="196.7" width="48.8" height="24.65" shape-rendering="crispEdges"/><rect fill="#1e1e1e" x="0" y="221.1" width="48.8" height="24.65" shape-rendering="crispEdges"/><rect fill="#24292f" x="48.8" y="221.1" width="12.2" height="24.65" shape-rendering="crispEdges"/><rect fill="#24292f" x="61" y="221.1" width="73.2" height="24.65" shape-rendering="crispEdges"/><rect fill="#24292f" x="134.2" y="221.1" width="1647" height="24.65" shape-rendering="crispEdges"/><rect fill="#24292f" x="1781.2" y="221.1" width="73.2" height="24.65" shape-rendering="crispEdges"/><rect fill="#24292f" x="1854.4" y="221.1" width="12.2" height="24.65" shape-rendering="crispEdges"/><rect fill="#1e1e1e" x="1866.6" y="221.1" width="48.8" height="24.65" shape-rendering="crispEdges"/><rect fill="#1e1e1e" x="0" y="245.5" width="48.8" height="24.65" shape-rendering="crispEdges"/><rect fill="#24292f" x="48.8" y="245.5" width="12.2" height="24.65" shape-rendering="crispEdges"/><rect fill="#24292f" x="61" y="245.5" width="73.2" height="24.65" shape-rendering="crispEdges"/><rect fill="#24292f" x="134.2" y="245.5" width="12.2" height="24.65" shape-rendering="crispEdges"/><rect fill="#24292f" x="146.4" y="245.5" width="12.2" height="24.65" shape-rendering="crispEdges"/><rect fill="#24292f" x="158.6" y="245.5" width="841.8" height="24.65" shape-rendering="crispEdges"/><rect fill="#24292f" x="1000.4" y="245.5" width="756.4" height="24.65" shape-rendering="crispEdges"/><rect fill="#24292f" x="1756.8" y="245.5" width="12.2" height="24.65" shape-rendering="crispEdges"/><rect fill="#24292f" x="1769" y="245.5" width="12.2" height="24.65" shape-rendering="crispEdges"/><rect fill="#24292f" x="1781.2" y="245.5" width="73.2" height="24.65" shape-rendering="crispEdges"/><rect fill="#24292f" x="1854.4" y="245.5" width="12.2" height="24.65" shape-rendering="crispEdges"/><rect fill="#1e1e1e" x="1866.6" y="245.5" width="48.8" height="24.65" shape-rendering="crispEdges"/><rect fill="#1e1e1e" x="0" y="269.9" width="48.8" height="24.65" shape-rendering="crispEdges"/><rect fill="#24292f" x="48.8" y="269.9" width="12.2" height="24.65" shape-rendering="crispEdges"/><rect fill="#24292f" x="61" y="269.9" width="73.2" height="24.65" shape-rendering="crispEdges"/><rect fill="#24292f" x="134.2" y="269.9" width="1647" height="24.65" shape-rendering="crispEdges"/><rect fill="#24292f" x="1781.2" y="269.9" width="73.2" height="24.65" shape-rendering="crispEdges"/><rect fill="#24292f" x="1854.4" y="269.9" width="12.2" height="24.65" shape-rendering="crispEdges"/><rect fill="#1e1e1e" x="1866.6" y="269.9" width="48.8" height="24.65" shape-rendering="crispEdges"/><rect fill="#1e1e1e" x="0" y="294.3" width="48.8" height="24.65" shape-rendering="crispEdges"/><rect fill="#24292f" x="48.8" y="294.3" width="12.2" height="24.65" shape-rendering="crispEdges"/><rect fill="#24292f" x="61" y="294.3" width="1793.4" height="24.65" shape-rendering="crispEdges"/><rect fill="#24292f" x="1854.4" y="294.3" width="12.2" height="24.65" shape-rendering="crispEdges"/><rect fill="#1e1e1e" x="1866.6" y="294.3" width="48.8" height="24.65" shape-rendering="crispEdges"/><rect fill="#1e1e1e" x="0" y="318.7" width="48.8" height="24.65" shape-rendering="crispEdges"/><rect fill="#24292f" x="48.8" y="318.7" width="12.2" height="24.65" shape-rendering="crispEdges"/><rect fill="#24292f" x="61" y="318.7" width="1793.4" height="24.65" shape-rendering="crispEdges"/><rect fill="#24292f" x="1854.4" y="318.7" width="12.2" height="24.65" shape-rendering="crispEdges"/><rect fill="#1e1e1e" x="1866.6" y="318.7" width="48.8" height="24.65" shape-rendering="crispEdges"/><rect fill="#1e1e1e" x="0" y="343.1" width="48.8" height="24.65" shape-rendering="crispEdges"/><rect fill="#24292f" x="48.8" y="343.1" width="12.2" height="24.65" shape-rendering="crispEdges"/><rect fill="#24292f" x="61" y="343.1" width="1793.4" height="24.65" shape-rendering="crispEdges"/><rect fill="#24292f" x="1854.4" y="343.1" width="12.2" height="24.65" shape-rendering="crispEdges"/><rect fill="#1e1e1e" x="1866.6" y="343.1" width="48.8" height="24.65" shape-rendering="crispEdges"/><rect fill="#1e1e1e" x="0" y="367.5" width="1915.4" height="24.65" shape-rendering="crispEdges"/><rect fill="#1e1e1e" x="0" y="391.9" width="1915.4" height="24.65" shape-rendering="crispEdges"/><rect fill="#1e1e1e" x="0" y="416.3" width="1915.4" height="24.65" shape-rendering="crispEdges"/><rect fill="#1e1e1e" x="0" y="440.7" width="1915.4" height="24.65" shape-rendering="crispEdges"/><rect fill="#24292f" x="0" y="465.1" width="36.6" height="24.65" shape-rendering="crispEdges"/><rect fill="#24292f" x="36.6" y="465.1" width="158.6" height="24.65" shape-rendering="crispEdges"/><rect fill="#24292f" x="195.2" y="465.1" width="12.2" height="24.65" shape-rendering="crispEdges"/><rect fill="#24292f" x="207.4" y="465.1" width="36.6" height="24.65" shape-rendering="crispEdges"/><rect fill="#24292f" x="244" y="465.1" width="146.4" height="24.65" shape-rendering="crispEdges"/><rect fill="#24292f" x="390.4" y="465.1" width="12.2" height="24.65" shape-rendering="crispEdges"/><rect fill="#24292f" x="402.6" y="465.1" width="36.6" height="24.65" shape-rendering="crispEdges"/><rect fill="#24292f" x="439.2" y="465.1" width="183" height="24.65" shape-rendering="crispEdges"/><rect fill="#24292f" x="622.2" y="465.1" width="12.2" height="24.65" shape-rendering="crispEdges"/><rect fill="#24292f" x="634.4" y="465.1" width="85.4" height="24.65" shape-rendering="crispEdges"/><rect fill="#24292f" x="719.8" y="465.1" width="183" height="24.65" shape-rendering="crispEdges"/><rect fill="#24292f" x="902.8" y="465.1" width="12.2" height="24.65" shape-rendering="crispEdges"/><rect fill="#24292f" x="915" y="465.1" width="36.6" height="24.65" shape-rendering="crispEdges"/><rect fill="#24292f" x="951.6" y="465.1" width="207.4" height="24.65" shape-rendering="crispEdges"/><rect fill="#24292f" x="1159" y="465.1" width="12.2" height="24.65" shape-rendering="crispEdges"/><rect fill="#24292f" x="1171.2" y="465.1" width="744.2" height="24.65" shape-rendering="crispEdges"/>
    <g class="terminal-987389223-matrix">
    <text class="terminal-987389223-r2" x="1915.4" y="20" textLength="12.2" clip-path="url(#terminal-987389223-line-0)">
</text><text class="terminal-987389223-r3" x="683.2" y="44.4" textLength="12.2" clip-path="url(#terminal-987389223-line-1)">━</text><text class="terminal-987389223-r4" x="695.4" y="44.4" textLength="12.2" clip-path="url(#terminal-987389223-line-1)">╺</text><text class="terminal-987389223-r4" x="707.6" y="44.4" textLength="366" clip-path="url(#terminal-987389223-line-1)">━━━━━━━━━━━━━━━━━━━━━━━━━━━━━━</text><text class="terminal-987389223-r1" x="1110.2" y="44.4" textLength="24.4" clip-path="url(#terminal-987389223-line-1)">4%</text><text class="terminal-987389223-r2" x="1915.4" y="44.4" textLength="12.2" clip-path="url(#terminal-987389223-line-1)">
</text><text class="terminal-987389223-r2" x="1915.4" y="68.8" textLength="12.2" clip-path="url(#terminal-987389223-line-2)">
</text><text class="terminal-987389223-r5" x="48.8" y="93.2" textLength="12.2" clip-path="url(#terminal-987389223-line-3)">▔</text><text class="terminal-987389223-r5" x="61" y="93.2" textLength="1793.4" clip-path="url(#terminal-987389223-line-3)">▔▔▔▔▔▔▔▔▔▔▔▔▔▔▔▔▔▔▔▔▔▔▔▔▔▔▔▔▔▔▔▔▔▔▔▔▔▔▔▔▔▔▔▔▔▔▔▔▔▔▔▔▔▔▔▔▔▔▔▔▔▔▔▔▔▔▔▔▔▔▔▔▔▔▔▔▔▔▔▔▔▔▔▔▔▔▔▔▔▔▔▔▔▔▔▔▔▔▔▔▔▔▔▔▔▔▔▔▔▔▔▔▔▔▔▔▔▔▔▔▔▔▔▔▔▔▔▔▔▔▔▔▔▔▔▔▔▔▔▔▔▔▔▔▔▔▔</text><text class="terminal-987389223-r5" x="1854.4" y="93.2" textLength="12.2" clip-path="url(#terminal-987389223-line-3)">▔</text><text class="terminal-987389223-r2" x="1915.4" y="93.2" textLength="12.2" clip-path="url(#terminal-987389223-line-3)">
</text><text class="terminal-987389223-r2" x="1915.4" y="117.6" textLength="12.2" clip-path="url(#terminal-987389223-line-4)">
</text><text class="terminal-987389223-r2" x="1915.4" y="142" textLength="12.2" clip-path="url(#terminal-987389223-line-5)">
</text><text class="terminal-987389223-r6" x="134.2" y="166.4" textLength="610" clip-path="url(#terminal-987389223-line-6)">Does&#160;this&#160;sentence&#160;suggest&#160;the&#160;article&#160;is&#160;about&#160;a&#160;</text><text class="terminal-987389223-r6" x="744.2" y="166.4" textLength="134.2" clip-path="url(#terminal-987389223-line-6)">new&#160;dataset</text><text class="terminal-987389223-r6" x="878.4" y="166.4" textLength="24.4" clip-path="url(#terminal-987389223-line-6)">?.</text><text class="terminal-987389223-r2" x="1915.4" y="166.4" textLength="12.2" clip-path="url(#terminal-987389223-line-6)">
</text><text class="terminal-987389223-r2" x="1915.4" y="190.8" textLength="12.2" clip-path="url(#terminal-987389223-line-7)">
</text><text class="terminal-987389223-r2" x="1915.4" y="215.2" textLength="12.2" clip-path="url(#terminal-987389223-line-8)">
</text><text class="terminal-987389223-r7" x="134.2" y="239.6" textLength="1647" clip-path="url(#terminal-987389223-line-9)">╭─────────────────────────────────────────────────────────────────────────────────────────────────────────────────────────────────────╮</text><text class="terminal-987389223-r2" x="1915.4" y="239.6" textLength="12.2" clip-path="url(#terminal-987389223-line-9)">
</text><text class="terminal-987389223-r7" x="134.2" y="264" textLength="12.2" clip-path="url(#terminal-987389223-line-10)">│</text><text class="terminal-987389223-r7" x="158.6" y="264" textLength="841.8" clip-path="url(#terminal-987389223-line-10)">We&#160;train&#160;our&#160;model&#160;on&#160;a&#160;new&#160;synthetic&#160;image&#160;dataset,&#160;that&#160;we&#160;release.</text><text class="terminal-987389223-r7" x="1769" y="264" textLength="12.2" clip-path="url(#terminal-987389223-line-10)">│</text><text class="terminal-987389223-r2" x="1915.4" y="264" textLength="12.2" clip-path="url(#terminal-987389223-line-10)">
</text><text class="terminal-987389223-r7" x="134.2" y="288.4" textLength="1647" clip-path="url(#terminal-987389223-line-11)">╰─────────────────────────────────────────────────────────────────────────────────────────────────────────────────────────────────────╯</text><text class="terminal-987389223-r2" x="1915.4" y="288.4" textLength="12.2" clip-path="url(#terminal-987389223-line-11)">
</text><text class="terminal-987389223-r2" x="1915.4" y="312.8" textLength="12.2" clip-path="url(#terminal-987389223-line-12)">
</text><text class="terminal-987389223-r2" x="1915.4" y="337.2" textLength="12.2" clip-path="url(#terminal-987389223-line-13)">
</text><text class="terminal-987389223-r5" x="48.8" y="361.6" textLength="12.2" clip-path="url(#terminal-987389223-line-14)">▁</text><text class="terminal-987389223-r5" x="61" y="361.6" textLength="1793.4" clip-path="url(#terminal-987389223-line-14)">▁▁▁▁▁▁▁▁▁▁▁▁▁▁▁▁▁▁▁▁▁▁▁▁▁▁▁▁▁▁▁▁▁▁▁▁▁▁▁▁▁▁▁▁▁▁▁▁▁▁▁▁▁▁▁▁▁▁▁▁▁▁▁▁▁▁▁▁▁▁▁▁▁▁▁▁▁▁▁▁▁▁▁▁▁▁▁▁▁▁▁▁▁▁▁▁▁▁▁▁▁▁▁▁▁▁▁▁▁▁▁▁▁▁▁▁▁▁▁▁▁▁▁▁▁▁▁▁▁▁▁▁▁▁▁▁▁▁▁▁▁▁▁▁▁▁▁</text><text class="terminal-987389223-r5" x="1854.4" y="361.6" textLength="12.2" clip-path="url(#terminal-987389223-line-14)">▁</text><text class="terminal-987389223-r2" x="1915.4" y="361.6" textLength="12.2" clip-path="url(#terminal-987389223-line-14)">
</text><text class="terminal-987389223-r2" x="1915.4" y="386" textLength="12.2" clip-path="url(#terminal-987389223-line-15)">
</text><text class="terminal-987389223-r2" x="1915.4" y="410.4" textLength="12.2" clip-path="url(#terminal-987389223-line-16)">
</text><text class="terminal-987389223-r2" x="1915.4" y="434.8" textLength="12.2" clip-path="url(#terminal-987389223-line-17)">
</text><text class="terminal-987389223-r2" x="1915.4" y="459.2" textLength="12.2" clip-path="url(#terminal-987389223-line-18)">
</text><text class="terminal-987389223-r8" x="0" y="483.6" textLength="36.6" clip-path="url(#terminal-987389223-line-19)">&#160;f&#160;</text><text class="terminal-987389223-r9" x="36.6" y="483.6" textLength="158.6" clip-path="url(#terminal-987389223-line-19)">Annotate&#160;yes.</text><text class="terminal-987389223-r8" x="207.4" y="483.6" textLength="36.6" clip-path="url(#terminal-987389223-line-19)">&#160;j&#160;</text><text class="terminal-987389223-r9" x="244" y="483.6" textLength="146.4" clip-path="url(#terminal-987389223-line-19)">Annotate&#160;no.</text><text class="terminal-987389223-r8" x="402.6" y="483.6" textLength="36.6" clip-path="url(#terminal-987389223-line-19)">&#160;m&#160;</text><text class="terminal-987389223-r9" x="439.2" y="483.6" textLength="183" clip-path="url(#terminal-987389223-line-19)">Annotate&#160;maybe.</text><text class="terminal-987389223-r8" x="634.4" y="483.6" textLength="85.4" clip-path="url(#terminal-987389223-line-19)">&#160;SPACE&#160;</text><text class="terminal-987389223-r9" x="719.8" y="483.6" textLength="183" clip-path="url(#terminal-987389223-line-19)">Skip&#160;the&#160;thing.</text><text class="terminal-987389223-r8" x="915" y="483.6" textLength="36.6" clip-path="url(#terminal-987389223-line-19)">&#160;⌫&#160;</text><text class="terminal-987389223-r9" x="951.6" y="483.6" textLength="207.4" clip-path="url(#terminal-987389223-line-19)">Previous&#160;example.</text>
    </g>
    </g>
</svg>
